<svg id="Layer_1" data-name="Layer 1" xmlns="http://www.w3.org/2000/svg" width="48.77" height="29.81" viewBox="0 0 48.77 29.81"><defs><style>.cls-1{fill:#fff;stroke:#c6c6c6;stroke-miterlimit:10;stroke-width:0.23px;}.cls-2{fill:#0957a0;}.cls-3{fill:#f5a41c;}</style></defs><title>visa</title><rect class="cls-1" x="0.11" y="0.11" width="48.54" height="29.58"/><g id="g4158"><polygon id="polygon9" class="cls-2" points="21.23 22.06 17.58 22.06 19.86 7.95 23.51 7.95 21.23 22.06"/><path id="path11" class="cls-2" d="M107.2,45.5a9,9,0,0,0-3.28-.6c-3.6,0-6.14,1.92-6.16,4.67,0,2,1.82,3.15,3.2,3.83s1.89,1.14,1.89,1.75c0,1-1.14,1.38-2.19,1.38a7.2,7.2,0,0,1-3.42-.75l-.48-.22-.51,3.17a11.17,11.17,0,0,0,4.07.75c3.83,0,6.32-1.89,6.35-4.82,0-1.61-1-2.84-3.06-3.85-1.28-.64-2.06-1.08-2.06-1.74s.66-1.22,2.1-1.22a6.12,6.12,0,0,1,2.72.55l.33.15.5-3Z" transform="translate(-72.73 -37.21)"/><path id="path13" class="cls-2" d="M112.05,54.27l1.45-4s.3-.83.48-1.35l.26,1.21s.69,3.38.84,4.09Zm4.5-9.12h-2.82a1.81,1.81,0,0,0-1.91,1.17l-5.42,13h3.83l.76-2.12h4.69c.11.5.44,2.12.44,2.12h3.38l-3-14.12Z" transform="translate(-72.73 -37.21)"/><path id="path15" class="cls-2" d="M87.27,45.15l-3.58,9.63-.39-2a10.79,10.79,0,0,0-5-5.92l3.27,12.34h3.86l5.74-14.1Z" transform="translate(-72.73 -37.21)"/><path id="path17" class="cls-3" d="M80.37,45.15H74.5l-.06.29c4.58,1.17,7.61,4,8.86,7.39L82,46.34a1.51,1.51,0,0,0-1.65-1.19Z" transform="translate(-72.73 -37.21)"/></g></svg>